<svg xmlns="http://www.w3.org/2000/svg" width="1365" height="717" viewBox="0 0 1365 717">
    <g fill="none" fill-rule="evenodd">
        <g transform="translate(1183)">
            <path fill="#F7F7FC" d="M182,579.352772 C182,577.408625 180.964294,575.61554 179.281919,574.641915 L103.218081,530.727374 C102.377928,530.242113 101.439481,530 100.5,530 C99.5615534,530 98.6231068,530.242113 97.7819193,530.727374 L21.7180807,574.641915 C20.0367403,575.61554 19,577.408625 19,579.352772 L19,667.181855 C19,669.123932 20.0367403,670.920121 21.7180807,671.890642 L97.7819193,715.805184 C98.6231068,716.291479 99.5615534,716.532557 100.5,716.532557 C101.439481,716.532557 102.377928,716.291479 103.218081,715.805184 L179.281919,671.890642 C180.964294,670.920121 182,669.123932 182,667.181855 L182,579.352772 Z"/>
            <circle cx="15" cy="39" r="15" fill="#F2BB30" opacity=".25"/>
            <circle cx="52" cy="10" r="10" fill="#F2BB30" opacity=".25"/>
            <path fill="#17B9E6" fill-rule="nonzero" d="M62.0000101,548.470278 L62.0000101,581.33226 C62.003417,582.060361 61.6163024,582.734428 60.9857076,583.098423 L32.5214009,599.532961 C32.2095576,599.708599 31.8579077,599.801396 31.5000054,599.802495 C31.144352,599.801367 30.7950005,599.708533 30.4857029,599.532961 L2.0213962,583.098423 C1.38905686,582.735251 0.99940041,582.06147 1.00000069,581.33226 L1.00000069,548.470278 C1.00371514,547.742231 1.39221663,547.070447 2.0213962,546.704115 L30.4857029,530.269578 C30.793684,530.090807 31.1439068,529.99774 31.5000054,530.000043 C31.8583499,529.99771 32.2108664,530.090736 32.5214009,530.269578 L60.9857076,546.704115 C61.6135999,547.0708 61.9997318,547.743156 62.0000101,548.470278 Z" opacity=".15"/>
        </g>
        <g transform="translate(0 110)">
            <path fill="#F2BB30" fill-rule="nonzero" d="M328.999974,535.19539 L328.999974,572.905841 C329.003884,573.741366 328.559654,574.514885 327.836021,574.932584 L295.17208,593.79188 C294.814227,593.993432 294.410695,594.09992 293.999988,594.101182 C293.591861,594.099887 293.190966,593.993356 292.836035,593.79188 L260.172093,574.932584 C259.446458,574.515829 258.999312,573.742638 259.000001,572.905841 L259.000001,535.19539 C259.004263,534.359927 259.450084,533.589028 260.172093,533.168647 L292.836035,514.309351 C293.189455,514.104204 293.59135,513.997407 293.999988,514.000049 C294.411202,513.997373 294.815729,514.104123 295.17208,514.309351 L327.836021,533.168647 C328.556553,533.589433 328.999655,534.360988 328.999974,535.19539 Z" opacity=".15"/>
            <circle cx="111.5" cy="254.5" r="111.5" fill="#F7F7FC"/>
            <path fill="#17E67E" fill-rule="nonzero" d="M277.999986,11.5060688 L277.999986,31.9774565 C278.002108,32.4310273 277.760955,32.8509374 277.368126,33.0776886 L259.636272,43.3155917 C259.442009,43.4250061 259.222949,43.4828137 258.999993,43.4834986 C258.778439,43.4827959 258.56081,43.4249646 258.368133,43.3155917 L240.636279,33.0776886 C240.242363,32.8514502 239.999626,32.431718 240,31.9774565 L240,11.5060688 C240.002314,11.0525316 240.244332,10.6340435 240.636279,10.4058367 L258.368133,0.167933579 C258.55999,0.0565679853 258.778161,-0.00140765295 258.999993,2.66660411e-05 C259.223224,-0.00142633007 259.442824,0.0565237429 259.636272,0.167933579 L277.368126,10.4058367 C277.759272,10.6342635 277.999813,11.0531077 277.999986,11.5060688 Z" opacity=".15"/>
        </g>
    </g>
</svg>
